HIERARCHY
ROOT Hips
{
  OFFSET -69.4423 88.0299 51.6846
  CHANNELS 6 Xposition Yposition Zposition Zrotation Xrotation Yrotation
  JOINT Spine
  {
    OFFSET 12.0259 -0.162853 1.93176e-005
    CHANNELS 3 Zrotation Xrotation Yrotation
    JOINT Spine1
    {
      OFFSET 15.3169 -0.0121909 0
      CHANNELS 3 Zrotation Xrotation Yrotation
      JOINT Spine2
      {
        OFFSET 15.3176 -0.0121922 0
        CHANNELS 3 Zrotation Xrotation Yrotation
        JOINT Neck
        {
          OFFSET 19.9142 1.56236 0
          CHANNELS 3 Zrotation Xrotation Yrotation
          JOINT Head
          {
            OFFSET 6.92646 0 0
            CHANNELS 3 Zrotation Xrotation Yrotation
            End Site
            {
              OFFSET 20.7666 0 0
            }
          }
          JOINT LeftShoulder
          {
            OFFSET -4.94072 -1.14703 8.14416
            CHANNELS 3 Zrotation Xrotation Yrotation
            JOINT LeftArm
            {
              OFFSET 14.108 0 -2.74767e-005
              CHANNELS 3 Zrotation Xrotation Yrotation
              JOINT LeftForeArm
              {
                OFFSET 28.5802 -0.0783412 -0.0284884
                CHANNELS 3 Zrotation Xrotation Yrotation
                JOINT LeftHand
                {
                  OFFSET 27.092 0 0
                  CHANNELS 3 Zrotation Xrotation Yrotation
                  End Site
                  {
                    OFFSET 9.55928 -0.186424 0.145352
                  }
                }
              }
            }
          }
          JOINT RightShoulder
          {
            OFFSET -7.15748 -1.33027 -6.24935
            CHANNELS 3 Zrotation Xrotation Yrotation
            JOINT RightArm
            {
              OFFSET 14.108 0 1.82997e-005
              CHANNELS 3 Zrotation Xrotation Yrotation
              JOINT RightForeArm
              {
                OFFSET 28.5802 -0.0707221 2.30684e-005
                CHANNELS 3 Zrotation Xrotation Yrotation
                JOINT RightHand
                {
                  OFFSET 27.092 0 -1.30073e-005
                  CHANNELS 3 Zrotation Xrotation Yrotation
                  End Site
                  {
                    OFFSET 9.55929 -0.186417 -0.145354
                  }
                }
              }
            }
          }
        }
      }
    }
  }
  JOINT LeftUpLeg
  {
    OFFSET 0.00499725 -0.534999 8.837
    CHANNELS 3 Zrotation Xrotation Yrotation
    JOINT LeftLeg
    {
      OFFSET 39.9035 -0.00124594 0.000252775
      CHANNELS 3 Zrotation Xrotation Yrotation
      JOINT LeftFoot
      {
        OFFSET 39.6689 0 0
        CHANNELS 3 Zrotation Xrotation Yrotation
        JOINT LeftToe
        {
          OFFSET 10.1624 13.6296 0
          CHANNELS 3 Zrotation Xrotation Yrotation
          End Site
          {
            OFFSET 8.38147 0 0
          }
        }
      }
    }
  }
  JOINT RightUpLeg
  {
    OFFSET 0.00499725 -0.535 -8.837
    CHANNELS 3 Zrotation Xrotation Yrotation
    JOINT RightLeg
    {
      OFFSET 39.9036 -0.000268477 0.000106433
      CHANNELS 3 Zrotation Xrotation Yrotation
      JOINT RightFoot
      {
        OFFSET 39.6689 1.17892e-005 0
        CHANNELS 3 Zrotation Xrotation Yrotation
        JOINT RightToe
        {
          OFFSET 10.1624 13.6296 0
          CHANNELS 3 Zrotation Xrotation Yrotation
          End Site
          {
            OFFSET 8.38147 0 0
          }
        }
      }
    }
  }
}
MOTION
Frames:	13
Frame Time:	0.0333333
83.8707 84.4544 -44.7761 90.7623 77.0063 4.38706 1.11068 -3.99915 0.261236 2.24792 -7.99191 0.60272 2.24791 -7.99191 0.602704 1.27685 -19.7602 -14.22 68.8249 -14.4809 45.5621 172.326 -18.1688 -100.726 -23.9534 8.34626 85.1382 -36.8812 5.99245 -22.019 3.37111 -86.4378 5.45936 172.228 -20.0986 68.8773 -13.2196 -16.4917 -88.694 -29.3329 -4.7666 18.1053 7.16549 87.8732 -7.11425 7.62861 -0.0593268 175.903 -8.04076 3.80266 -0.493054 -24.2746 11.0586 -173.593 90 3.18055e-015 -1.59028e-014 -33.0825 11.8635 179.101 -61.1895 -0.207302 -0.383095 15.9615 -8.20881 0.534435 90 -3.77691e-015 3.18055e-015 
83.6664 84.5779 -45.5514 90.8096 81.2632 3.89768 0.964418 -3.87612 0.263388 1.95349 -7.7467 0.59451 1.95348 -7.7467 0.5945 0.726967 -19.7542 -14.799 69.537 -14.4483 45.2124 172.701 -18.2374 -101.055 -23.0328 7.88319 84.9835 -35.25 5.53224 -21.2285 4.85784 -86.4911 6.89023 172.58 -20.17 68.4262 -11.5835 -16.4128 -88.4325 -28.1884 -4.45088 17.5357 12.2715 88.66 -12.2164 6.43271 -1.71717 177.458 -8.12344 2.89907 -0.474977 -24.6249 14.8662 -171.935 90 3.18055e-015 3.18055e-015 -31.0268 14.8366 -179.774 -61.7657 -0.23241 -0.487694 16.8083 -12.203 1.28466 90 -7.15625e-015 -1.27222e-014 
83.3334 84.7102 -46.1847 91.5141 85.8808 2.60954 0.953252 -3.99379 0.268257 1.93238 -7.982 0.605602 1.93237 -7.98201 0.6056 -0.0346431 -19.3094 -14.3274 68.958 -14.2854 44.1444 173.741 -18.0819 -100.226 -21.0295 7.64132 84.7775 -34.7765 5.44394 -20.9904 6.21071 -85.9578 8.23267 173.667 -19.9762 69.2066 -10.3762 -15.6506 -88.0449 -26.629 -4.00996 16.6998 4.26505 86.4172 -4.19425 5.20936 -3.7765 179.048 -8.22606 1.77943 -0.45013 -25.2972 18.5656 -170.284 90 0 -3.18055e-015 -28.6083 17.7746 -178.346 -61.4948 -0.244401 -0.586992 17.6093 -14.2469 1.80144 90 8.74653e-015 3.18055e-015 
83.014 84.652 -46.7375 -104.809 89.2435 -160.997 0.638244 -3.83913 0.203396 1.29458 -7.67523 0.451438 1.29458 -7.67523 0.451433 0.828034 -19.4683 -14.5348 68.2421 -14.2051 44.1925 172.726 -18.0168 -100.725 -21.8745 8.53841 85.3139 -33.9636 5.18317 -20.5788 8.76329 -86.6929 10.6801 172.656 -19.8731 68.6784 -8.51529 -16.2828 -87.621 -25.0709 -3.60974 15.8948 3.0646 84.9953 -2.9499 3.75202 -5.79028 179.869 -8.32523 0.426076 -0.40966 -25.2734 23.3234 -168.494 90 -3.18055e-015 -9.54166e-015 -25.8833 20.3306 -177.848 -60.7499 -0.255763 -0.634131 18.9029 -13.7144 1.93144 90 9.54166e-015 9.54166e-015 
82.5429 84.6313 -47.2392 -93.8948 84.7484 -172.402 0.658492 -3.76055 0.23452 1.3368 -7.51766 0.514245 1.3368 -7.51766 0.514236 -0.288617 -19.3182 -14.5199 68.0678 -14.5214 43.4357 173.921 -18.1679 -100.311 -22.4591 8.3091 84.6619 -33.8472 5.15169 -20.5104 15.8276 -88.1029 17.791 173.842 -20.0293 69.0946 -9.41683 -16.3292 -88.0066 -25.2074 -3.63463 15.9541 3.01959 85.0137 -2.9173 2.3198 -7.24816 -178.773 -8.40057 -1.51029 -0.350151 -24.2708 29.2833 -166.911 90 -1.27222e-014 -1.27222e-014 -23.8767 22.3409 -176.683 -58.7235 -0.2695 -0.719701 19.2178 -16.3631 2.4618 90 3.18055e-015 3.18055e-015 
82.0621 84.2765 -47.6982 -91.9562 79.9976 -174.539 0.599008 -3.74335 0.234164 1.21643 -7.48361 0.500429 1.21642 -7.48361 0.50042 -0.741237 -19.2768 -14.5722 68.0971 -14.6347 43.0052 174.361 -18.2577 -100.233 -22.7367 8.6606 84.6365 -34.2032 5.25616 -20.6784 15.1511 -88.1389 17.2039 174.292 -20.1045 69.212 -9.31783 -16.4752 -88.1141 -25.2039 -3.63169 15.9449 2.87759 84.8213 -2.77777 0.9226 -8.60003 -177.758 -8.52729 -5.42348 -0.229311 -24.244 37.2224 -164.807 90 -1.11319e-014 -0 -21.7659 23.7177 -175.941 -55.6614 -0.273082 -0.837925 19.4177 -21.5016 3.47412 90 -7.95139e-015 1.27222e-014 
81.3922 84.0798 -48.1426 -92.9273 76.3397 -173.987 0.540664 -3.49899 0.227195 1.09835 -6.99514 0.489062 1.09835 -6.99515 0.489048 -0.743636 -19.2797 -14.8107 67.4699 -14.1419 43.2746 174.292 -18.2566 -100.468 -22.6523 8.50717 83.9848 -33.8023 5.14869 -20.4733 14.6492 -88.0538 16.6784 174.199 -20.1305 68.9635 -9.62238 -16.2669 -88.3907 -25.2912 -3.64991 15.9897 3.03063 84.9915 -2.94288 -0.670868 -9.50352 -176.764 -8.55771 -10.2624 -0.162731 -22.2961 45.2074 -164.098 90 0 -9.54166e-015 -20.9204 23.3047 -175.073 -53.1722 -0.273623 -0.880723 20.6407 -21.2871 3.65917 90 -1.27222e-014 -1.27222e-014 
80.5676 83.9169 -48.6507 -92.4099 72.6429 -174.697 0.556761 -3.31132 0.218788 1.12906 -6.61992 0.471197 1.12905 -6.61991 0.471186 -1.46504 -19.0569 -14.174 67.0788 -15.2049 41.5928 175.316 -18.2336 -99.5014 -21.9029 7.87934 83.5 -33.2949 5.02594 -20.2281 12.8182 -87.6732 14.8197 175.229 -20.1403 69.904 -10.0408 -15.901 -88.486 -25.5819 -3.72376 16.1429 3.45262 85.6248 -3.39095 -1.96784 -11.0243 -175.981 -8.56537 -14.0996 -0.130031 -22.1646 50.5854 -163.049 90 -4.77083e-015 -1.27222e-014 -19.517 20.7395 -175.159 -51.4773 -0.279676 -0.831265 21.0568 -16.821 2.61064 90 4.77083e-015 6.36111e-015 
79.4348 83.9055 -49.1202 -92.1103 69.6851 -175.614 0.650953 -3.06372 0.266531 1.31905 -6.12363 0.569351 1.31904 -6.12364 0.569336 -1.22223 -19.0847 -14.7777 67.153 -13.9497 42.4832 174.861 -18.1731 -100.216 -20.6266 7.46921 83.1603 -33.2394 5.04592 -20.211 12.1712 -87.6089 14.2521 174.756 -20.1268 69.1724 -10.7005 -15.1011 -88.5283 -25.7047 -3.75005 16.1933 3.34382 85.4098 -3.25522 -3.04755 -12.4004 -174.754 -8.57415 -19.7821 -0.123035 -21.5325 57.3975 -162.001 90 -1.43125e-014 -1.27222e-014 -19.0641 18.0052 -174.391 -50.2003 -0.314624 -0.756588 20.0548 -11.7676 1.31989 90 1.59028e-015 6.36111e-015 
78.0795 84.1079 -49.5766 -92.2502 66.8407 -176.079 0.828304 -2.81891 0.337365 1.67631 -5.63214 0.717013 1.6763 -5.63214 0.716999 -1.2408 -19.0575 -14.9808 66.5878 -13.1861 42.9502 174.837 -18.1278 -100.406 -19.0726 6.25459 82.8917 -33.2809 5.10234 -20.259 9.10344 -87.1861 11.3015 174.726 -20.1456 68.9459 -11.719 -13.7218 -88.3766 -26.0599 -3.83994 16.3686 3.71331 85.6627 -3.62932 -4.12702 -14.084 -173.504 -8.56826 -27.101 -0.160968 -21.2962 64.3498 -160.527 90 -3.18055e-015 -3.18055e-015 -19.6064 16.5529 -173.18 -49.6093 -0.341003 -0.729845 18.8646 -10.0488 0.838316 90 7.95139e-015 3.18055e-015 
76.6672 84.3605 -49.8165 -92.3113 63.8693 -176.762 0.91227 -2.67793 0.400549 1.84638 -5.3486 0.845344 1.84637 -5.34859 0.84533 -1.67434 -18.7962 -15.4258 67.5183 -12.1536 42.8433 175.223 -17.9579 -100.676 -18.0134 5.91907 82.5082 -32.6976 4.94937 -19.9651 10.1454 -87.6571 12.2973 175.096 -19.9937 68.6449 -13.0902 -12.9461 -88.5564 -27.0065 -4.08994 16.8629 4.41345 86.2169 -4.3657 -4.65856 -16.133 -172.036 -8.48885 -9.92361 -0.249849 -19.5764 44.6972 -165.567 90 4.77083e-015 -3.18055e-015 -19.8247 14.9644 -171.942 -48.4781 -0.37623 -0.706958 17.3927 -8.34592 0.435116 90 -1.74931e-014 -3.18055e-015 
75.3001 84.67 -50.0012 -92.3317 60.1677 -177.433 0.967288 -2.61457 0.469439 1.95907 -5.22025 0.984747 1.95907 -5.22026 0.984732 -1.66015 -18.6212 -14.5746 67.3807 -12.6758 41.5861 175.547 -17.808 -99.7486 -16.8456 5.43198 82.6561 -32.3456 4.87507 -19.8035 6.59609 -86.7521 8.75751 175.441 -19.8586 69.575 -14.8878 -12.8085 -88.7927 -28.5254 -4.51096 17.6462 14.0884 88.7721 -14.0415 -5.12504 -17.7255 -170.849 -8.39604 -1.39107 -0.476506 -25.5147 26.5083 -167.101 90 -6.36111e-015 -1.90833e-014 -19.6182 12.9659 -171.045 -46.8895 -0.410935 -0.677674 15.9662 -6.41771 0.109548 90 -6.36111e-015 -0 
73.6757 84.992 -50.3997 -92.5684 55.8795 -178.203 1.05733 -2.72952 0.652657 2.14945 -5.44577 1.35816 2.14944 -5.44578 1.35815 -2.30926 -18.5383 -14.7146 67.7533 -12.4574 41.3926 176.172 -17.8909 -99.7089 -17.1399 5.22813 82.8007 -32.5874 4.9417 -19.9373 5.29733 -86.4008 7.49223 176.075 -19.9757 69.6677 -16.2713 -12.8449 -88.5904 -30.7609 -5.16335 18.7694 27.3901 89.3608 -27.3575 -6.09839 -16.7392 -169.777 -8.46688 1.35558 -0.596489 -26.9059 12.8051 -172.503 90 -1.55052e-014 -1.5704e-014 -19.7678 10.5889 -169.928 -45.2658 -0.451753 -0.646132 14.4196 -3.82479 -0.160425 90 3.18055e-015 9.54166e-015 
